<svg viewBox="66.7392 374.37440000000004 884.736 268.288" version="1.1" xmlns="http://www.w3.org/2000/svg" style="max-height: 500px" width="884.736" height="268.288">
<path transform="translate(0,0)" fill="#F8F8F9" d="M0 0 C337.92 0 675.84 0 1024 0 C1024 337.92 1024 675.84 1024 1024 C686.08 1024 348.16 1024 0 1024 C0 686.08 0 348.16 0 0 Z"/>
<path transform="translate(214.36181640625,412.9091796875)" fill="#154E9D" d="M0 0 C2.70309527 1.32226366 5.32495075 2.74589388 7.95068359 4.21582031 C10.01662802 5.33256051 12.08305337 6.44841138 14.14990234 7.56347656 C15.22030762 8.14758301 16.29071289 8.73168945 17.39355469 9.33349609 C22.64634999 12.17846378 27.95513779 14.91324581 33.26318359 17.65332031 C34.90734253 18.50579346 34.90734253 18.50579346 36.5847168 19.37548828 C45.77653475 24.13998619 54.98776987 28.86637795 64.20031738 33.59063721 C89.25936274 46.44138144 89.25936274 46.44138144 101.66796875 53.04541016 C103.78331034 54.16782561 105.90376867 55.28017439 108.02490234 56.39160156 C109.41690634 57.12452843 110.808837 57.85759459 112.20068359 58.59082031 C112.82765137 58.91783936 113.45461914 59.2448584 114.10058594 59.58178711 C116.61122083 60.91084249 118.61609068 62.0687274 120.63818359 64.09082031 C120.76318359 66.90332031 120.76318359 66.90332031 119.63818359 70.09082031 C114.12135761 74.59033338 107.06620372 77.55078408 100.76318359 80.77832031 C90.6087949 86.02236312 80.59082322 91.4745992 70.63818359 97.09082031 C70.30579696 108.79821617 70.65293461 120.2041959 72.07568359 131.84082031 C72.27738159 133.49198853 72.27738159 133.49198853 72.4831543 135.17651367 C72.69972534 139.99492524 72.69972534 139.99492524 74.63818359 144.09082031 C74.83963707 147.58268052 74.98726164 150.2899942 73.57568359 153.52832031 C72.16866188 157.37417967 72.86120543 160.07643311 73.63818359 164.09082031 C74.29818359 165.08082031 74.95818359 166.07082031 75.63818359 167.09082031 C76.87552702 171.42152229 76.71388144 175.62464756 76.63818359 180.09082031 C73.10214399 181.85884011 69.03247105 181.27546944 65.13818359 181.27832031 C64.25775391 181.29056641 63.37732422 181.3028125 62.47021484 181.31542969 C61.62845703 181.31736328 60.78669922 181.31929687 59.91943359 181.32128906 C59.14664063 181.32539795 58.37384766 181.32950684 57.57763672 181.33374023 C55.63818359 181.09082031 55.63818359 181.09082031 53.63818359 179.09082031 C53.02178057 174.26232993 53.92065185 171.04923139 55.70068359 166.52832031 C57.35306594 162.29263598 58.12681855 159.55672517 56.63818359 155.09082031 C56.30818359 154.43082031 55.97818359 153.77082031 55.63818359 153.09082031 C55.22310547 153.43113281 54.80802734 153.77144531 54.38037109 154.12207031 C48.47595366 158.7665493 42.08458867 162.43974725 35.51904297 166.05419922 C34.28076108 166.7366687 33.0449989 167.42373333 31.81201172 168.11572266 C2.36805003 184.6363524 2.36805003 184.6363524 -10.36181641 183.09082031 C-13.74352595 182.07746063 -16.90278483 180.67888537 -20.11181641 179.21582031 C-21.02576172 178.81016846 -21.93970703 178.4045166 -22.88134766 177.98657227 C-36.41840519 171.91049099 -49.59819169 165.20436087 -62.54931641 157.96582031 C-63.39816406 157.49942139 -64.24701172 157.03302246 -65.12158203 156.55249023 C-81.04861241 147.48258153 -81.04861241 147.48258153 -83.36181641 139.09082031 C-83.52709162 136.33889908 -83.59547212 133.69418843 -83.55712891 130.94628906 C-83.55429901 130.17650223 -83.55146912 129.40671539 -83.54855347 128.61360168 C-83.53740798 126.16834607 -83.51231422 123.72346419 -83.48681641 121.27832031 C-83.47677931 119.61491416 -83.46765473 117.95150224 -83.45947266 116.28808594 C-83.43748714 112.22218794 -83.40299655 108.15656738 -83.36181641 104.09082031 C-79.19665305 105.66250556 -75.26892654 107.60617391 -71.32275391 109.65332031 C-70.64853897 110.00088882 -69.97432404 110.34845734 -69.27967834 110.70655823 C-67.09753433 111.83235801 -64.91714705 112.9615132 -62.73681641 114.09082031 C-61.23175549 114.86821054 -59.72662826 115.64547242 -58.22143555 116.42260742 C-51.15619291 120.07346857 -44.09859178 123.73803289 -37.06762695 127.45458984 C-34.86402039 128.6191263 -32.65609075 129.77513016 -30.44775391 130.93066406 C-27.63776854 132.40399687 -24.85908373 133.92391838 -22.08837891 135.46972656 C-20.70064372 136.21895381 -19.31263533 136.96767529 -17.92431641 137.71582031 C-17.33384521 138.05943604 -16.74337402 138.40305176 -16.13500977 138.75708008 C-10.43043552 141.77270364 -4.68388586 142.10128175 1.63818359 141.09082031 C6.31533214 139.38336275 10.55457401 137.090801 14.88818359 134.65332031 C16.08047147 134.00601 17.27392641 133.36084494 18.46850586 132.71777344 C21.87632502 130.87382067 25.25901107 128.98681009 28.63818359 127.09082031 C29.49718262 126.61241699 30.35618164 126.13401367 31.24121094 125.64111328 C33.98394243 124.11229117 36.7234639 122.57875525 39.44848633 121.01855469 C44.30074531 118.24092245 49.25151432 115.71802158 54.28271484 113.28222656 C56.80836494 112.0636258 56.80836494 112.0636258 59.63818359 110.09082031 C59.88834232 106.5072479 59.88834232 106.5072479 59.63818359 103.09082031 C50.13353615 107.71031511 40.78096559 112.58915353 31.47753906 117.60076904 C27.27266513 119.86408402 23.06145981 122.11561305 18.85107422 124.36865234 C16.87898296 125.42572922 14.90853707 126.48589141 12.94091797 127.55126953 C10.76471136 128.72640325 8.5791762 129.88106828 6.38818359 131.02832031 C4.67888672 131.93904297 4.67888672 131.93904297 2.93505859 132.86816406 C-2.45478888 134.8670056 -6.92589303 134.95157291 -12.11572266 132.62207031 C-13.3939917 131.96163131 -14.66334631 131.28371701 -15.92431641 130.59082031 C-16.95685547 130.04941406 -16.95685547 130.04941406 -18.01025391 129.49707031 C-20.13641264 128.37763025 -22.24962175 127.23635023 -24.36181641 126.09082031 C-25.6307805 125.41267464 -26.90029233 124.73555267 -28.17041016 124.05957031 C-30.03012226 123.06878842 -31.88878012 122.07630328 -33.74414062 121.07739258 C-37.97072409 118.80662917 -42.2436934 116.64538766 -46.54931641 114.52832031 C-54.22363894 110.74141049 -61.76207109 106.70404764 -69.29931641 102.65332031 C-69.91064423 102.32483093 -70.52197205 101.99634155 -71.15182495 101.65789795 C-74.14727373 100.04789565 -77.1421053 98.43675102 -80.13671875 96.82519531 C-89.57030815 91.75205231 -99.01875528 86.73150869 -108.61181641 81.96582031 C-110.5612605 80.99181797 -112.5101345 80.01669323 -114.45849609 79.04052734 C-115.73311804 78.40452435 -117.00984278 77.77271917 -118.28857422 77.14501953 C-120.11224114 76.24635334 -121.92480246 75.32525708 -123.73681641 74.40332031 C-124.77580078 73.88382812 -125.81478516 73.36433594 -126.88525391 72.82910156 C-129.79463373 70.78702897 -130.64789278 69.55921045 -131.36181641 66.09082031 C-130.436318 63.21707296 -129.54959825 62.21424427 -127.00537109 60.54199219 C-126.0247168 60.05279297 -125.0440625 59.56359375 -124.03369141 59.05957031 C-122.93573242 58.50285645 -121.83777344 57.94614258 -120.70654297 57.37255859 C-120.12134888 57.08253967 -119.53615479 56.79252075 -118.93322754 56.49371338 C-115.82482283 54.95284377 -112.73574412 53.3738832 -109.64306641 51.80175781 C-109.0182135 51.48560516 -108.3933606 51.16945251 -107.74957275 50.84371948 C-102.30452453 48.08286879 -96.95055994 45.17550727 -91.61181641 42.21582031 C-81.29352048 36.51871489 -70.82375826 31.12934987 -60.31982422 25.78466797 C-53.4267549 22.26570867 -46.67586985 18.58021302 -40.01513672 14.63354492 C-36.51767265 12.60000835 -32.94091404 10.7865943 -29.29931641 9.02832031 C-23.69873569 6.30024375 -18.29117948 3.40240011 -12.98681641 0.12207031 C-8.39778579 -1.68076314 -4.54895537 -1.75111741 0 0 Z"/>
<path transform="translate(212.27734375,470.1796875)" fill="#183779" d="M0 0 C3.31427135 0.99856095 6.19457297 2.3779695 9.28515625 3.9453125 C9.95571045 4.2851416 10.62626465 4.6249707 11.31713867 4.97509766 C19.67048036 9.24626745 27.92590017 13.70854745 36.18334961 18.16162109 C41.66237811 21.11550966 47.14571538 24.05590113 52.6796875 26.90625 C53.56229248 27.36209473 54.44489746 27.81793945 55.35424805 28.28759766 C56.97088875 29.11926614 58.59067896 29.94485175 60.21411133 30.76318359 C64.97754962 33.21903446 67.03231672 34.8643505 68.84765625 40.0078125 C69.28078125 41.4 69.28078125 41.4 69.72265625 42.8203125 C70.38265625 41.8303125 71.04265625 40.8403125 71.72265625 39.8203125 C71.77276855 40.71637207 71.82288086 41.61243164 71.87451172 42.53564453 C72.06734004 45.93178416 72.26560221 49.32752343 72.46728516 52.72314453 C72.55272154 54.17940288 72.63612908 55.635782 72.71728516 57.09228516 C72.44748123 73.02925785 72.44748123 73.02925785 76.72265625 86.8203125 C76.92410972 90.31217271 77.0717343 93.01948639 75.66015625 96.2578125 C74.25313453 100.10367186 74.94567808 102.8059253 75.72265625 106.8203125 C76.71265625 108.3053125 76.71265625 108.3053125 77.72265625 109.8203125 C78.95999967 114.15101448 78.79835409 118.35413975 78.72265625 122.8203125 C75.18661665 124.5883323 71.1169437 124.00496163 67.22265625 124.0078125 C65.90201172 124.02618164 65.90201172 124.02618164 64.5546875 124.04492188 C63.29205078 124.04782227 63.29205078 124.04782227 62.00390625 124.05078125 C60.8447168 124.05694458 60.8447168 124.05694458 59.66210938 124.06323242 C57.72265625 123.8203125 57.72265625 123.8203125 55.72265625 121.8203125 C55.10625322 116.99182212 56.00512451 113.77872357 57.78515625 109.2578125 C59.4375386 105.02212817 60.2112912 102.28621736 58.72265625 97.8203125 C58.39265625 97.1603125 58.06265625 96.5003125 57.72265625 95.8203125 C57.30757812 96.160625 56.8925 96.5009375 56.46484375 96.8515625 C50.56042631 101.49604149 44.16906133 105.16923943 37.60351562 108.78369141 C36.36523374 109.46616089 35.12947156 110.15322551 33.89648438 110.84521484 C4.45252268 127.36584459 4.45252268 127.36584459 -8.27734375 125.8203125 C-11.65905329 124.80695282 -14.81831218 123.40837755 -18.02734375 121.9453125 C-19.39826172 121.33683472 -19.39826172 121.33683472 -20.796875 120.71606445 C-34.33393253 114.63998318 -47.51371904 107.93385306 -60.46484375 100.6953125 C-61.31369141 100.22891357 -62.16253906 99.76251465 -63.03710938 99.28198242 C-78.96413975 90.21207372 -78.96413975 90.21207372 -81.27734375 81.8203125 C-81.44261897 79.06839127 -81.51099947 76.42368062 -81.47265625 73.67578125 C-81.46982635 72.90599442 -81.46699646 72.13620758 -81.46408081 71.34309387 C-81.45293532 68.89783825 -81.42784156 66.45295638 -81.40234375 64.0078125 C-81.39230665 62.34440635 -81.38318208 60.68099443 -81.375 59.01757812 C-81.35301448 54.95168013 -81.31852389 50.88605956 -81.27734375 46.8203125 C-77.1121804 48.39199775 -73.18445389 50.3356661 -69.23828125 52.3828125 C-68.56406631 52.73038101 -67.88985138 53.07794952 -67.19520569 53.43605042 C-65.01306168 54.56185019 -62.83267439 55.69100539 -60.65234375 56.8203125 C-59.14728283 57.59770273 -57.64215561 58.3749646 -56.13696289 59.15209961 C-49.07172025 62.80296076 -42.01411912 66.46752507 -34.9831543 70.18408203 C-32.77954773 71.34861849 -30.5716181 72.50462235 -28.36328125 73.66015625 C-25.55329589 75.13348906 -22.77461107 76.65341057 -20.00390625 78.19921875 C-18.61617107 78.948446 -17.22816267 79.69716748 -15.83984375 80.4453125 C-14.95413696 80.96073608 -14.95413696 80.96073608 -14.05053711 81.48657227 C-8.34596287 84.50219582 -2.5994132 84.83077394 3.72265625 83.8203125 C8.39980479 82.11285494 12.63904667 79.82029319 16.97265625 77.3828125 C18.16494413 76.73550219 19.35839907 76.09033713 20.55297852 75.44726562 C23.96079767 73.60331286 27.34348372 71.71630227 30.72265625 69.8203125 C31.58165527 69.34190918 32.4406543 68.86350586 33.32568359 68.37060547 C36.06841509 66.84178336 38.80793655 65.30824744 41.53295898 63.74804688 C46.38521797 60.97041464 51.33598697 58.44751376 56.3671875 56.01171875 C58.8928376 54.79311799 58.8928376 54.79311799 61.72265625 52.8203125 C61.97281498 49.23674009 61.97281498 49.23674009 61.72265625 45.8203125 C59.24765625 46.3153125 59.24765625 46.3153125 56.72265625 46.8203125 C57.38265625 45.8303125 58.04265625 44.8403125 58.72265625 43.8203125 C52.30046809 40.3128397 45.87393393 36.81360033 39.4387207 33.33007812 C37.44046438 32.24803232 35.44294738 31.16462043 33.44604492 30.08007812 C27.97944039 27.11326927 22.50259062 24.16869202 17.00390625 21.26171875 C15.37811646 20.3965564 15.37811646 20.3965564 13.71948242 19.51391602 C11.64279774 18.40941846 9.56238026 17.31190247 7.4777832 16.22241211 C2.51864343 13.57502632 -1.71495618 11.22267356 -5.27734375 6.8203125 C-5.77734375 4.1328125 -5.77734375 4.1328125 -5.27734375 1.8203125 C-2.27734375 -0.1796875 -2.27734375 -0.1796875 0 0 Z"/>
<path transform="translate(909.1875,494.0625)" fill="#161616" d="M0 0 C9.96045582 9.33540697 13.72417129 21.93996085 14.25 35.25 C13.93263981 46.63357216 11.33358178 58.13856451 3.8125 66.9375 C3.32265625 67.55882812 2.8328125 68.18015625 2.328125 68.8203125 C-4.00281948 76.06015495 -14.05498713 80.41075335 -23.58422852 81.11450195 C-39.37362213 81.50430601 -52.87394726 81.11090896 -65.1875 69.9375 C-74.87759506 59.15768836 -78.61058073 47.12295968 -78.4609375 32.83203125 C-77.54513289 19.78835701 -72.96072998 8.15640404 -63.4375 -0.9375 C-45.24686535 -15.52498971 -17.96769899 -14.14698139 0 0 Z"/>
<path transform="translate(518.4375,493.125)" fill="#151515" d="M0 0 C9.28018852 8.79564509 12.58943017 19.38727052 13.5625 31.875 C13.5625 35.835 13.5625 39.795 13.5625 43.875 C-7.2275 43.875 -28.0175 43.875 -49.4375 43.875 C-46.10648422 54.56691725 -46.10648422 54.56691725 -38.25 60.625 C-31.35551019 63.31517406 -23.30219973 62.2696627 -16.4375 59.875 C-13.66710315 58.02806876 -11.92187105 56.8437421 -10.4375 53.875 C-3.5075 53.875 3.4225 53.875 10.5625 53.875 C9.180675 63.54777503 5.11856585 69.20322915 -2.3515625 75.37109375 C-10.64389662 81.34964925 -17.99901912 82.09641639 -28 82.1875 C-29.55170898 82.23100586 -29.55170898 82.23100586 -31.13476562 82.27539062 C-42.77860479 82.37017454 -52.72053357 78.66969353 -61.4375 70.875 C-72.73611312 57.80150896 -74.12295262 44.45661388 -73.4375 27.875 C-72.58836782 18.06125925 -67.38859575 7.82098085 -60.67578125 0.69140625 C-43.81685149 -12.98992418 -16.62639141 -14.84773042 0 0 Z"/>
<path transform="translate(608.3203125,492.44140625)" fill="#171716" d="M0 0 C7.14626077 6.63106522 10.36569348 14.6437828 10.80667114 24.3550415 C10.80746674 25.37128601 10.80826233 26.38753052 10.80908203 27.43457031 C10.81223419 28.59216858 10.81538635 29.74976685 10.81863403 30.94244385 C10.81559769 32.80204742 10.81559769 32.80204742 10.8125 34.69921875 C10.81345673 35.97714294 10.81441345 37.25506714 10.81539917 38.57171631 C10.81607897 41.26822315 10.81474189 43.964639 10.81005859 46.66113281 C10.80433873 50.12369531 10.80765874 53.58618067 10.81363106 57.04874039 C10.81810102 60.34890267 10.81497811 63.64905547 10.8125 66.94921875 C10.81452423 68.19705139 10.81654846 69.44488403 10.81863403 70.73052979 C10.81390579 72.44801422 10.81390579 72.44801422 10.80908203 74.20019531 C10.80828644 75.21325745 10.80749084 76.22631958 10.80667114 77.27008057 C10.6796875 79.55859375 10.6796875 79.55859375 9.6796875 80.55859375 C8.11796005 80.64544978 6.55239406 80.66561594 4.98828125 80.65625 C4.04404297 80.65302734 3.09980469 80.64980469 2.12695312 80.64648438 C1.13373047 80.63810547 0.14050781 80.62972656 -0.8828125 80.62109375 C-1.87990234 80.61658203 -2.87699219 80.61207031 -3.90429688 80.60742188 C-6.37636099 80.59559382 -8.84830768 80.57911224 -11.3203125 80.55859375 C-11.6503125 78.57859375 -11.9803125 76.59859375 -12.3203125 74.55859375 C-12.90296875 74.95691406 -13.485625 75.35523438 -14.0859375 75.765625 C-23.62440837 81.92963684 -34.10544811 85.29894333 -45.41796875 82.90234375 C-54.34873056 80.52354152 -60.74704532 76.96565543 -65.7578125 69.05859375 C-67.40145958 65.3768243 -68.03877462 62.57050848 -68.3203125 58.55859375 C-68.475 56.67140625 -68.475 56.67140625 -68.6328125 54.74609375 C-68.49966049 47.87545016 -65.73720167 41.67086433 -61.0703125 36.68359375 C-47.69387645 24.68704269 -29.10893619 26.13551523 -12.3203125 26.55859375 C-12.76059434 24.95195126 -13.21196339 23.34834445 -13.66796875 21.74609375 C-14.04320679 20.40611328 -14.04320679 20.40611328 -14.42602539 19.0390625 C-15.90144952 14.94670402 -18.49412097 12.665258 -22.14453125 10.453125 C-27.41700372 8.28544781 -33.58293128 9.07931617 -38.9453125 10.55859375 C-42.2839444 12.910632 -42.2839444 12.910632 -42.3203125 20.55859375 C-49.5803125 20.55859375 -56.8403125 20.55859375 -64.3203125 20.55859375 C-64.3203125 11.44136142 -63.33698063 5.86630417 -57.10546875 -0.83984375 C-42.49511143 -13.94760414 -14.65499846 -12.19222901 0 0 Z"/>
<path transform="translate(770.18359375,489.46875)" fill="#171716" d="M0 0 C5.50228416 4.28067612 7.85654326 8.92086465 9.81640625 15.53125 C10.08178444 16.39759064 10.08178444 16.39759064 10.3525238 17.28143311 C10.94989432 20.17866342 10.93575646 22.9013448 10.92993164 25.86035156 C10.92981834 27.78189056 10.92981834 27.78189056 10.92970276 29.74224854 C10.92459651 31.13545775 10.91938052 32.52866657 10.9140625 33.921875 C10.91219657 35.35105337 10.91077349 36.78023238 10.90977478 38.20941162 C10.9059634 41.96425148 10.89614492 45.71905243 10.8850708 49.47387695 C10.874827 53.30810012 10.8702708 57.14232959 10.86523438 60.9765625 C10.85452138 68.49481143 10.83693578 76.0130203 10.81640625 83.53125 C3.22640625 83.53125 -4.36359375 83.53125 -12.18359375 83.53125 C-12.19817627 81.8819751 -12.21275879 80.2327002 -12.2277832 78.53344727 C-12.28594789 72.38870034 -12.36318042 66.24431289 -12.44604492 60.09985352 C-12.48082038 57.44519197 -12.50726562 54.79082104 -12.5300293 52.13598633 C-12.56373164 48.31041148 -12.61605771 44.4854647 -12.671875 40.66015625 C-12.67826492 39.48167618 -12.68465485 38.30319611 -12.6912384 37.08900452 C-12.80496079 30.65155379 -13.0349271 24.3083715 -16.18359375 18.53125 C-21.64882523 14.77390336 -27.70752462 14.81592572 -34.18359375 15.53125 C-38.3024578 16.64630159 -42.10284344 18.56950618 -45.18359375 21.53125 C-45.80267066 24.32826503 -45.80267066 24.32826503 -45.72949219 27.56323242 C-45.75907013 29.42482246 -45.75907013 29.42482246 -45.78924561 31.32402039 C-45.79090876 32.67825272 -45.79213963 34.03248565 -45.79296875 35.38671875 C-45.80794864 36.77250607 -45.8246754 38.15827552 -45.84307861 39.54402161 C-45.88678698 43.18871881 -45.90675852 46.8331752 -45.92181396 50.47808838 C-45.94137283 54.19842795 -45.98334405 57.91850696 -46.0234375 61.63867188 C-46.0987774 68.93616085 -46.14697371 76.23344518 -46.18359375 83.53125 C-53.77359375 83.53125 -61.36359375 83.53125 -69.18359375 83.53125 C-69.18359375 54.82125 -69.18359375 26.11125 -69.18359375 -3.46875 C-62.54397907 -4.13271147 -56.72571362 -4.57426806 -50.18359375 -4.46875 C-49.19359375 -1.82875 -48.20359375 0.81125 -47.18359375 3.53125 C-46.42046875 2.78875 -45.65734375 2.04625 -44.87109375 1.28125 C-32.4442949 -9.13359094 -12.98359394 -8.73315084 0 0 Z"/>
<path transform="translate(363,450)" fill="#171716" d="M0 0 C7.92 0 15.84 0 24 0 C24 33 24 66 24 100 C41.16 100 58.32 100 76 100 C76 107.59 76 115.18 76 123 C50.92 123 25.84 123 0 123 C0 82.41 0 41.82 0 0 Z"/>
<path transform="translate(688,484)" fill="#161616" d="M0 0 C-0.33 7.59 -0.66 15.18 -1 23 C-3.7225 23.37125 -3.7225 23.37125 -6.5 23.75 C-14.81152465 25.16784832 -20.22332712 27.52300028 -25.7734375 33.92578125 C-29.42543843 40.10161721 -29.33109869 46.77883385 -29.4140625 53.74609375 C-29.43342865 54.75720718 -29.4527948 55.76832062 -29.4727478 56.81007385 C-29.5322199 60.01913182 -29.57879916 63.22822628 -29.625 66.4375 C-29.66320957 68.62175988 -29.70226302 70.80600517 -29.7421875 72.99023438 C-29.83947291 78.32674424 -29.91929893 83.66311081 -30 89 C-37.59 89 -45.18 89 -53 89 C-53 59.96 -53 30.92 -53 1 C-46.4 1 -39.8 1 -33 1 C-33 4.96 -33 8.92 -33 13 C-31.535625 11.7625 -30.07125 10.525 -28.5625 9.25 C-19.2126187 1.76744627 -11.9400813 0 0 0 Z"/>
<path transform="translate(797,485)" fill="#171716" d="M0 0 C7.59 0 15.18 0 23 0 C23 29.04 23 58.08 23 88 C15.41 88 7.82 88 0 88 C0 58.96 0 29.92 0 0 Z"/>
<path transform="translate(891,508)" fill="#F7F7F7" d="M0 0 C4.93867449 3.44308461 7.07334413 7.43277754 8.52734375 13.22265625 C10.29233364 23.59379519 8.91035035 31.19754464 3.0625 39.875 C-1.7616503 44.84533667 -7.61072326 46.86741453 -14.45703125 47.07421875 C-20.63226306 46.74221704 -25.37705741 45.19146795 -30 41 C-36.84469963 32.41858554 -36.57486186 23.52519814 -36 13 C-34.95154533 7.39448254 -32.42979202 3.60564467 -28 0 C-18.56935066 -5.38894248 -9.3867559 -5.65680205 0 0 Z"/>
<path transform="translate(212.27734375,470.1796875)" fill="#183066" d="M0 0 C3.31427135 0.99856095 6.19457297 2.3779695 9.28515625 3.9453125 C10.29098755 4.45505615 10.29098755 4.45505615 11.31713867 4.97509766 C19.67048036 9.24626745 27.92590017 13.70854745 36.18334961 18.16162109 C41.66237811 21.11550966 47.14571538 24.05590113 52.6796875 26.90625 C54.00359497 27.59001709 54.00359497 27.59001709 55.35424805 28.28759766 C56.97088875 29.11926614 58.59067896 29.94485175 60.21411133 30.76318359 C64.97754962 33.21903446 67.03231672 34.8643505 68.84765625 40.0078125 C69.13640625 40.9359375 69.42515625 41.8640625 69.72265625 42.8203125 C70.38265625 41.8303125 71.04265625 40.8403125 71.72265625 39.8203125 C71.72265625 48.4003125 71.72265625 56.9803125 71.72265625 65.8203125 C71.39265625 65.8203125 71.06265625 65.8203125 70.72265625 65.8203125 C70.39265625 60.2103125 70.06265625 54.6003125 69.72265625 48.8203125 C69.39265625 49.8103125 69.06265625 50.8003125 68.72265625 51.8203125 C69.05265625 52.1503125 69.38265625 52.4803125 69.72265625 52.8203125 C69.85546875 54.6328125 69.85546875 54.6328125 69.84765625 56.8203125 C69.85152344 57.903125 69.85152344 57.903125 69.85546875 59.0078125 C69.72265625 60.8203125 69.72265625 60.8203125 68.72265625 61.8203125 C68.32696517 63.83342699 67.98013434 65.85628458 67.66015625 67.8828125 C67.48355469 68.98753906 67.30695313 70.09226562 67.125 71.23046875 C66.99222656 72.08511719 66.85945313 72.93976563 66.72265625 73.8203125 C65.40265625 73.8203125 64.08265625 73.8203125 62.72265625 73.8203125 C62.73051147 72.97436523 62.73051147 72.97436523 62.73852539 72.11132812 C62.75952892 69.51433461 62.77238987 66.91735906 62.78515625 64.3203125 C62.79772461 62.99 62.79772461 62.99 62.81054688 61.6328125 C62.83029221 56.26208164 62.51101518 51.13397587 61.72265625 45.8203125 C60.07265625 46.1503125 58.42265625 46.4803125 56.72265625 46.8203125 C57.38265625 45.8303125 58.04265625 44.8403125 58.72265625 43.8203125 C52.30046809 40.3128397 45.87393393 36.81360033 39.4387207 33.33007812 C37.44046438 32.24803232 35.44294738 31.16462043 33.44604492 30.08007812 C27.97944039 27.11326927 22.50259062 24.16869202 17.00390625 21.26171875 C15.92004639 20.68494385 14.83618652 20.10816895 13.71948242 19.51391602 C11.64279774 18.40941846 9.56238026 17.31190247 7.4777832 16.22241211 C2.51864343 13.57502632 -1.71495618 11.22267356 -5.27734375 6.8203125 C-5.77734375 4.1328125 -5.77734375 4.1328125 -5.27734375 1.8203125 C-2.27734375 -0.1796875 -2.27734375 -0.1796875 0 0 Z"/>
<path transform="translate(363,450)" fill="#030202" d="M0 0 C7.92 0 15.84 0 24 0 C24 33 24 66 24 100 C41.16 100 58.32 100 76 100 C76 107.59 76 115.18 76 123 C50.92 123 25.84 123 0 123 C0 82.41 0 41.82 0 0 Z M2 2 C2 41.27 2 80.54 2 121 C25.76 121 49.52 121 74 121 C74 114.4 74 107.8 74 101 C57.17 101 40.34 101 23 101 C23 68.33 23 35.66 23 2 C16.07 2 9.14 2 2 2 Z"/>
<path transform="translate(814,444)" fill="#161616" d="M0 0 C3.91691274 2.20326342 6.2848967 4.84764464 8 9 C8.69215363 14.03921609 8.5717449 17.83533447 6.3125 22.4375 C2.66616794 26.47803012 0.0055627 28.15438768 -5.4375 28.4375 C-9.95278304 28.2722151 -12.56215039 27.0285818 -16 24 C-18.96970154 20.21107045 -19.83466965 16.79458002 -20 12 C-18.49792128 7.3356503 -16.76310387 4.15615163 -13 1 C-9.05778242 -0.97110879 -4.29751409 -0.44778729 0 0 Z"/>
<path transform="translate(502.3125,505.80859375)" fill="#F7F7F7" d="M0 0 C5.6206 3.96824769 5.95875863 7.27644076 7.6875 14.19140625 C-5.8425 14.19140625 -19.3725 14.19140625 -33.3125 14.19140625 C-30.10786456 5.64571175 -27.45003079 1.76017164 -19.4375 -2.24609375 C-12.37963527 -3.5165094 -6.34227681 -3.6698255 0 0 Z"/>
<path transform="translate(595,537)" fill="#F4F4F4" d="M0 0 C0.36796722 6.13278704 -0.44376979 9.88300133 -4.37109375 14.671875 C-8.57492277 18.9059474 -12.44080206 19.94046872 -18.33984375 20.17578125 C-22.25444814 19.91710695 -24.62644931 19.00977488 -28 17 C-30.50201065 13.24698402 -30.21670759 11.47352084 -29.5859375 7.15625 C-29 5 -29 5 -27.0625 2.5625 C-20.00570063 -1.03790784 -7.34890035 -3.67445018 0 0 Z"/>
<path transform="translate(720,485)" fill="#060505" d="M0 0 C0.33 0.66 0.66 1.32 1 2 C-5.27 2 -11.54 2 -18 2 C-17.67 2.66 -17.34 3.32 -17 4 C-16.90698837 6.59382177 -16.87419714 9.16054639 -16.88647461 11.75439453 C-16.88632858 12.55447937 -16.88618256 13.35456421 -16.8860321 14.17889404 C-16.8867302 16.83022753 -16.89451779 19.48149125 -16.90234375 22.1328125 C-16.9042083 23.96841392 -16.90563203 25.80401583 -16.90663147 27.63961792 C-16.91045377 32.47623055 -16.92028161 37.31281327 -16.93133545 42.14941406 C-16.94155574 47.08267817 -16.94613042 52.01594711 -16.95117188 56.94921875 C-16.96190412 66.63282778 -16.97949861 76.31640672 -17 86 C-10.73 86 -4.46 86 2 86 C1.97905273 84.23889893 1.95810547 82.47779785 1.93652344 80.66333008 C1.87194863 74.83600821 1.82602743 69.0086987 1.79275131 63.18112659 C1.77190157 59.64878618 1.74363321 56.11683387 1.69824219 52.5847168 C1.64635175 48.52128433 1.62703334 44.45825772 1.609375 40.39453125 C1.57840729 38.49741142 1.57840729 38.49741142 1.54681396 36.56196594 C1.54651184 35.38111923 1.54620972 34.20027252 1.54589844 32.98364258 C1.53701599 31.94661697 1.52813354 30.90959137 1.51898193 29.84114075 C2.11889068 26.29777031 3.58742071 24.601516 6 22 C6.66 22.33 7.32 22.66 8 23 C7.51391769 23.37059036 7.02783539 23.74118073 6.52702332 24.1230011 C4.37339209 26.77021899 4.60198649 28.64413239 4.56762695 32.03198242 C4.54783279 33.27304245 4.52803864 34.51410248 4.50764465 35.79277039 C4.50087491 37.14700163 4.49442804 38.50123453 4.48828125 39.85546875 C4.47143595 41.24125261 4.45328591 42.62702118 4.43388367 44.01277161 C4.38636062 47.65741192 4.35656656 51.30199023 4.33044434 54.94683838 C4.30065017 58.66715746 4.254116 62.38726284 4.20898438 66.10742188 C4.12292501 73.40486031 4.05713932 80.70226732 4 88 C-3.59 88 -11.18 88 -19 88 C-19 59.29 -19 30.58 -19 1 C-12.36038532 0.33603853 -6.54211987 -0.10551806 0 0 Z"/>
<path transform="translate(635,485)" fill="#040404" d="M0 0 C6.6 0 13.2 0 20 0 C20 4.29 20 8.58 20 13 C19.67 13 19.34 13 19 13 C19 9.37 19 5.74 19 2 C13.39 2 7.78 2 2 2 C2 29.72 2 57.44 2 86 C8.27 86 14.54 86 21 86 C20.98839844 83.02613281 20.97679687 80.05226563 20.96484375 76.98828125 C20.95704096 74.10229601 20.95097114 71.21631195 20.94506836 68.33032227 C20.94004522 66.32738721 20.93322555 64.32445581 20.92456055 62.3215332 C20.91240655 59.43960669 20.90675143 56.55772875 20.90234375 53.67578125 C20.89718246 52.78288895 20.89202118 51.88999664 20.88670349 50.970047 C20.886333 46.8472736 20.95231582 43.02035208 22 39 C22.33 39 22.66 39 23 39 C23 55.17 23 71.34 23 88 C15.41 88 7.82 88 0 88 C0 58.96 0 29.92 0 0 Z"/>
<path transform="translate(797,485)" fill="#020202" d="M0 0 C7.59 0 15.18 0 23 0 C23 29.04 23 58.08 23 88 C15.41 88 7.82 88 0 88 C0 58.96 0 29.92 0 0 Z M1 2 C1 29.72 1 57.44 1 86 C7.6 86 14.2 86 21 86 C21 58.28 21 30.56 21 2 C14.4 2 7.8 2 1 2 Z"/>
<path transform="translate(271,577)" fill="#152D69" d="M0 0 C1 3 1 3 0.0625 5.1875 C-0.4634375 6.0846875 -0.4634375 6.0846875 -1 7 C1.58361518 7.05407567 4.16609255 7.093707 6.75 7.125 C7.47960937 7.14175781 8.20921875 7.15851562 8.9609375 7.17578125 C12.8044624 7.21072239 15.74606772 7.17499684 19 5 C20.28317892 8.84953676 20.06643637 11.94738135 20 16 C16.4639604 17.7680198 12.39428745 17.18464913 8.5 17.1875 C7.61957031 17.19974609 6.73914063 17.21199219 5.83203125 17.22460938 C4.99027344 17.22654297 4.14851563 17.22847656 3.28125 17.23046875 C2.50845703 17.23457764 1.73566406 17.23868652 0.93945312 17.24291992 C-1 17 -1 17 -3 15 C-3.57902815 9.20971854 -2.20528119 5.23754283 0 0 Z"/>
<path transform="translate(780,512)" fill="#030303" d="M0 0 C0.33 0 0.66 0 1 0 C1 20.13 1 40.26 1 61 C-6.59 61 -14.18 61 -22 61 C-22 41.53 -22 22.06 -22 2 C-21.67 2 -21.34 2 -21 2 C-19.71457767 7.89782012 -19.87378139 13.74007909 -19.90234375 19.7421875 C-19.9037587 20.86569611 -19.90517365 21.98920471 -19.90663147 23.14675903 C-19.91221336 26.72286683 -19.92476259 30.29891123 -19.9375 33.875 C-19.94251734 36.30468659 -19.94707984 38.73437417 -19.95117188 41.1640625 C-19.96217687 47.1093993 -19.97942908 53.05468891 -20 59 C-13.4 59 -6.8 59 0 59 C0 39.53 0 20.06 0 0 Z"/>
<path transform="translate(286,574)" fill="#1857AF" d="M0 0 C2.15377564 2.62198774 3.40072174 4.64404172 4 8 C0.45139093 11.38811921 -2.33324234 11.35003669 -7.125 11.25 C-8.36507813 11.23453125 -9.60515625 11.2190625 -10.8828125 11.203125 C-14 11 -14 11 -16 10 C-14.125 3.125 -14.125 3.125 -13 2 C-10.81360547 1.92741054 -8.62499611 1.91626217 -6.4375 1.9375 C-4.64119141 1.95103516 -4.64119141 1.95103516 -2.80859375 1.96484375 C-1.88175781 1.97644531 -0.95492188 1.98804688 0 2 C0 1.34 0 0.68 0 0 Z"/>
<path transform="translate(615,503)" fill="#313131" d="M0 0 C4.34306164 4.34306164 4.12779004 11.51003136 4.22705078 17.34594727 C4.22673749 19.75279016 4.21563925 22.15964917 4.1953125 24.56640625 C4.1924826 25.84104233 4.18965271 27.11567841 4.18673706 28.42893982 C4.1774899 31.7876054 4.15957871 35.1459896 4.1373291 38.50457764 C4.11672468 41.94378248 4.10770441 45.38301661 4.09765625 48.82226562 C4.07568358 55.54825361 4.04227195 62.27411059 4 69 C0.52176885 70.15941038 -1.45895578 69.70820884 -5 69 C-5 68.67 -5 68.34 -5 68 C-2.69 68 -0.38 68 2 68 C1.89206955 60.31505675 1.77935297 52.63019604 1.66066074 44.94541168 C1.60568451 41.37639729 1.55230755 37.80737442 1.50268555 34.23828125 C1.45466557 30.78876756 1.40231393 27.33934347 1.34705925 23.88993835 C1.31700158 21.94477613 1.29133754 19.99954761 1.26576233 18.05432129 C1.16446659 11.95662954 0.92500009 6.0306056 0 0 Z"/>
<path transform="translate(287,551)" fill="#205FB3" d="M0 0 C1.75747614 4.50353262 2.19294408 8.17639811 2 13 C1.67 13 1.34 13 1 13 C0.67 11.35 0.34 9.7 0 8 C-4.62 8 -9.24 8 -14 8 C-13 3 -13 3 -12 1 C-9.53125 0.5859375 -9.53125 0.5859375 -6.5 0.375 C-5.4996875 0.30023437 -4.499375 0.22546875 -3.46875 0.1484375 C-1 0 -1 0 0 0 Z"/>
<path transform="translate(131,517)" fill="#1B2C64" d="M0 0 C4.27950966 1.68222626 8.04054217 3.67090716 12 6 C11.01 6.495 11.01 6.495 10 7 C7.36 5.68 4.72 4.36 2 3 C2 14.22 2 25.44 2 37 C0 35 0 35 -0.22705078 31.56005859 C-0.22673369 30.08948021 -0.21540987 28.61887858 -0.1953125 27.1484375 C-0.1924826 26.37440582 -0.18965271 25.60037415 -0.18673706 24.80288696 C-0.17552754 22.32676843 -0.15042203 19.8510095 -0.125 17.375 C-0.11497118 15.69792188 -0.10584516 14.02083811 -0.09765625 12.34375 C-0.07558574 8.22902777 -0.04105102 4.11457489 0 0 Z"/>
<path transform="translate(284,537)" fill="#172F70" d="M0 0 C0.33 0 0.66 0 1 0 C2.32972073 4.98645274 2.06829634 9.87777466 2 15 C-1.63 14.34 -5.26 13.68 -9 13 C-9 11.68 -9 10.36 -9 9 C-6.36 9 -3.72 9 -1 9 C-0.67 6.03 -0.34 3.06 0 0 Z"/>
<path transform="translate(921,520)" fill="#201F20" d="M0 0 C3.58122622 5.37183933 2.53425431 12.63327671 1.546875 18.85546875 C1.08800561 20.91710339 0.552802 22.96154263 0 25 C-0.33 25 -0.66 25 -1 25 C-1.02900455 21.3958502 -1.04680018 17.79173038 -1.0625 14.1875 C-1.07087891 13.16333984 -1.07925781 12.13917969 -1.08789062 11.08398438 C-1.09111328 10.10107422 -1.09433594 9.11816406 -1.09765625 8.10546875 C-1.10289307 7.19949951 -1.10812988 6.29353027 -1.11352539 5.36010742 C-1 3 -1 3 0 0 Z"/>
<path transform="translate(274,523)" fill="#1A3E85" d="M0 0 C0.66 0.33 1.32 0.66 2 1 C2.05383848 3.45862401 2.09359038 5.9160755 2.125 8.375 C2.14175781 9.07367187 2.15851563 9.77234375 2.17578125 10.4921875 C2.19344267 12.32897486 2.10303261 14.16601963 2 16 C1.34 16.66 0.68 17.32 0 18 C-0.33 13.71 -0.66 9.42 -1 5 C-1.99 4.67 -2.98 4.34 -4 4 C-2.66666667 2.66666667 -1.33333333 1.33333333 0 0 Z M-6 5 C-5.34 5.33 -4.68 5.66 -4 6 C-4.99 6.66 -5.98 7.32 -7 8 C-7.33 7.34 -7.66 6.68 -8 6 C-7.34 5.67 -6.68 5.34 -6 5 Z"/>
<path transform="translate(831,523)" fill="#1E1E1E" d="M0 0 C0.99 0.33 1.98 0.66 3 1 C3.05384521 3.29141286 3.09272087 5.58318188 3.125 7.875 C3.14820313 9.15117188 3.17140625 10.42734375 3.1953125 11.7421875 C3 15 3 15 1 17 C-0.18681726 13.43954823 -0.09689832 10.56191663 -0.0625 6.8125 C-0.05347656 5.54019531 -0.04445313 4.26789062 -0.03515625 2.95703125 C-0.02355469 1.98121094 -0.01195312 1.00539063 0 0 Z"/>
<path transform="translate(882,504)" fill="#EFEFEF" d="M0 0 C0.33 0.66 0.66 1.32 1 2 C-6.92 2.495 -6.92 2.495 -15 3 C-15.33 3.99 -15.66 4.98 -16 6 C-17.98 6.33 -19.96 6.66 -22 7 C-16.49188069 0.05498 -8.24984792 -0.3928499 0 0 Z"/>
<path transform="translate(593,511)" fill="#E4E4E4" d="M0 0 C0.66 0 1.32 0 2 0 C2.33 2.64 2.66 5.28 3 8 C-4.92 7.67 -12.84 7.34 -21 7 C-21 6.67 -21 6.34 -21 6 C-10.605 5.505 -10.605 5.505 0 5 C0 3.35 0 1.7 0 0 Z"/>
<path transform="translate(655,485)" fill="#D4D4D5" d="M0 0 C0.99 0.33 1.98 0.66 3 1 C3 2.98 3 4.96 3 7 C4.32 6.67 5.64 6.34 7 6 C5.38405168 8.04119788 3.7143618 10.04072937 2 12 C1.34 12 0.68 12 0 12 C0 8.04 0 4.08 0 0 Z"/>
<path transform="translate(197,552)" fill="#0B1D5F" d="M0 0 C5.28 1.32 10.56 2.64 16 4 C16 4.33 16 4.66 16 5 C14.3603125 5.2165625 14.3603125 5.2165625 12.6875 5.4375 C9.06877013 5.88288104 9.06877013 5.88288104 6 7 C5.67 6.01 5.34 5.02 5 4 C3.35857037 2.9590934 1.69287785 1.95495674 0 1 C0 0.67 0 0.34 0 0 Z"/>
<path transform="translate(679,484)" fill="#4B4B4B" d="M0 0 C2.97 0 5.94 0 9 0 C9 1.65 9 3.3 9 5 C8.01 5 7.02 5 6 5 C6 4.34 6 3.68 6 3 C4.02 3 2.04 3 0 3 C0 2.01 0 1.02 0 0 Z"/>
<path transform="translate(469,538)" fill="#F1F2F2" d="M0 0 C3.63 0.33 7.26 0.66 11 1 C11 1.33 11 1.66 11 2 C8.69 2 6.38 2 4 2 C3.67 3.32 3.34 4.64 3 6 C2.34 6 1.68 6 1 6 C0.67 4.02 0.34 2.04 0 0 Z"/>
<path transform="translate(327,473)" fill="#0E368D" d="M0 0 C2.64168921 0.35698503 4.60890736 0.752308 6.875 2.1875 C8 4 8 4 7.6875 7.1875 C7.460625 8.115625 7.23375 9.04375 7 10 C6.34 9.67 5.68 9.34 5 9 C5.103125 8.2575 5.20625 7.515 5.3125 6.75 C5.2745414 3.74927133 5.2745414 3.74927133 2.5 1.6875 C1.675 1.130625 0.85 0.57375 0 0 Z"/>
<path transform="translate(208,471)" fill="#18397A" d="M0 0 C0.99 0.33 1.98 0.66 3 1 C3 2.98 3 4.96 3 7 C1.68 6.67 0.36 6.34 -1 6 C-1.042721 4.33388095 -1.04063832 2.66617115 -1 1 C-0.67 0.67 -0.34 0.34 0 0 Z"/>
<path transform="translate(273,559)" fill="#183C7C" d="M0 0 C3.3 0 6.6 0 10 0 C6.02129333 2.98403 4.63419069 3.27912589 0 4 C-0.33 4.66 -0.66 5.32 -1 6 C-0.67 4.02 -0.34 2.04 0 0 Z"/>
<path transform="translate(541,542)" fill="#1D1D1D" d="M0 0 C0.66 0.33 1.32 0.66 2 1 C2 4.63 2 8.26 2 12 C1.67 12 1.34 12 1 12 C0.67 10.35 0.34 8.7 0 7 C-0.33 7 -0.66 7 -1 7 C-1.04254356 5.00045254 -1.04080783 2.99958364 -1 1 C-0.67 0.67 -0.34 0.34 0 0 Z"/>
<path transform="translate(206,592)" fill="#101E53" d="M0 0 C0 0.99 0 1.98 0 3 C-6.75 2.25 -6.75 2.25 -9 0 C-5.62182575 -0.84454356 -3.32534757 -1.10844919 0 0 Z"/>
<path transform="translate(662,517)" fill="#F1F1F1" d="M0 0 C1.46726798 3.81489674 0.43336419 6.29011622 -1 10 C-1.66 9.67 -2.32 9.34 -3 9 C-2.5020163 5.26512223 -2.12508244 3.18762365 0 0 Z"/>
<path transform="translate(866,506)" fill="#E5E4E5" d="M0 0 C0.66 0.33 1.32 0.66 2 1 C0.25 3.0625 0.25 3.0625 -2 5 C-4.25 4.75 -4.25 4.75 -6 4 C-4.02 2.68 -2.04 1.36 0 0 Z"/>
<path transform="translate(153,439)" fill="#153F95" d="M0 0 C0.66 0.33 1.32 0.66 2 1 C-0.97 3.475 -0.97 3.475 -4 6 C-4.66 5.67 -5.32 5.34 -6 5 C-6 4.34 -6 3.68 -6 3 C-4.03533587 1.93224776 -2.03144641 0.93446535 0 0 Z"/>
</svg>